<svg width="42" height="44" viewBox="0 0 42 44" fill="none" xmlns="http://www.w3.org/2000/svg">
<rect y="0.5" width="42" height="43" rx="4" fill="#AB070F"/>
<rect x="2" y="2.5" width="38" height="19" rx="3" fill="#F2F2F2"/>
<path d="M12.5194 8.669V15.5H10.4844V10.858L9.46139 11.023V9.153L12.5194 8.669ZM18.7615 14.741C18.2702 15.3203 17.5149 15.61 16.4955 15.61C15.4615 15.61 14.6989 15.324 14.2075 14.752C13.7235 14.1727 13.4815 13.3073 13.4815 12.156C13.4815 10.9827 13.7235 10.11 14.2075 9.538C14.6915 8.95867 15.4542 8.669 16.4955 8.669C17.5295 8.669 18.2885 8.95867 18.7725 9.538C19.2565 10.11 19.4985 10.9827 19.4985 12.156C19.4985 13.3 19.2529 14.1617 18.7615 14.741ZM15.7695 13.311C15.9162 13.5603 16.1582 13.685 16.4955 13.685C16.8255 13.685 17.0602 13.5603 17.1995 13.311C17.3462 13.0543 17.4195 12.6693 17.4195 12.156C17.4195 11.6207 17.3462 11.2247 17.1995 10.968C17.0602 10.7113 16.8255 10.583 16.4955 10.583C16.1509 10.583 15.9052 10.7113 15.7585 10.968C15.6192 11.2173 15.5495 11.6133 15.5495 12.156C15.5495 12.6693 15.6229 13.0543 15.7695 13.311ZM25.0914 15.082C24.6441 15.434 23.9474 15.61 23.0014 15.61C22.0628 15.61 21.3698 15.434 20.9224 15.082C20.4824 14.73 20.2624 14.202 20.2624 13.498C20.2624 13.1973 20.3284 12.9113 20.4604 12.64C20.5924 12.3613 20.7648 12.1523 20.9774 12.013C20.7941 11.8663 20.6548 11.683 20.5594 11.463C20.4641 11.243 20.4164 11.0083 20.4164 10.759C20.4164 10.0917 20.6254 9.57833 21.0434 9.219C21.4614 8.85233 22.1141 8.669 23.0014 8.669C24.7468 8.669 25.6194 9.36567 25.6194 10.759C25.6194 11.001 25.5681 11.243 25.4654 11.485C25.3701 11.7197 25.2308 11.9103 25.0474 12.057C25.2821 12.211 25.4581 12.4127 25.5754 12.662C25.7001 12.904 25.7624 13.1827 25.7624 13.498C25.7624 14.202 25.5388 14.73 25.0914 15.082ZM22.3304 10.814C22.3304 11.1293 22.4698 11.3127 22.7484 11.364L23.2324 11.474C23.5404 11.3493 23.6944 11.1293 23.6944 10.814C23.6944 10.418 23.4634 10.22 23.0014 10.22C22.7814 10.22 22.6128 10.2713 22.4954 10.374C22.3854 10.4767 22.3304 10.6233 22.3304 10.814ZM22.1874 13.377C22.1874 13.8243 22.4588 14.048 23.0014 14.048C23.2874 14.048 23.5001 13.9967 23.6394 13.894C23.7788 13.784 23.8484 13.6337 23.8484 13.443C23.8484 13.2817 23.8044 13.1533 23.7164 13.058C23.6284 12.9627 23.4854 12.893 23.2874 12.849L22.6824 12.717C22.3524 12.8123 22.1874 13.0323 22.1874 13.377ZM31.8077 14.741C31.3164 15.3203 30.561 15.61 29.5417 15.61C28.5077 15.61 27.745 15.324 27.2537 14.752C26.7697 14.1727 26.5277 13.3073 26.5277 12.156C26.5277 10.9827 26.7697 10.11 27.2537 9.538C27.7377 8.95867 28.5004 8.669 29.5417 8.669C30.5757 8.669 31.3347 8.95867 31.8187 9.538C32.3027 10.11 32.5447 10.9827 32.5447 12.156C32.5447 13.3 32.299 14.1617 31.8077 14.741ZM28.8157 13.311C28.9624 13.5603 29.2044 13.685 29.5417 13.685C29.8717 13.685 30.1064 13.5603 30.2457 13.311C30.3924 13.0543 30.4657 12.6693 30.4657 12.156C30.4657 11.6207 30.3924 11.2247 30.2457 10.968C30.1064 10.7113 29.8717 10.583 29.5417 10.583C29.197 10.583 28.9514 10.7113 28.8047 10.968C28.6654 11.2173 28.5957 11.6133 28.5957 12.156C28.5957 12.6693 28.669 13.0543 28.8157 13.311Z" fill="#AB070F"/>
<path d="M10.3934 31.91L9.31344 35.5H8.06344L6.71344 29.38H8.05344L8.85344 33.13L9.69344 30.22V29.38H10.7934L11.8334 33.13L12.6534 29.38H13.9834L12.6434 35.5H11.3934L10.3934 31.91ZM18.2437 35.29C17.837 35.4967 17.3037 35.6 16.6437 35.6C15.8703 35.6 15.2703 35.4 14.8437 35C14.417 34.6 14.2037 34.0133 14.2037 33.24C14.2037 32.4867 14.3903 31.91 14.7637 31.51C15.1437 31.1033 15.6903 30.9 16.4037 30.9C17.0437 30.9 17.5503 31.0767 17.9237 31.43C18.297 31.7833 18.4837 32.28 18.4837 32.92V33.7H15.4637C15.517 34.0333 15.6637 34.2833 15.9037 34.45C16.1437 34.61 16.5037 34.69 16.9837 34.69C17.4037 34.69 17.8237 34.6133 18.2437 34.46V35.29ZM15.6837 32.11C15.537 32.2967 15.4637 32.56 15.4637 32.9H17.3037V32.66C17.3037 32.4 17.2337 32.1967 17.0937 32.05C16.9537 31.8967 16.7337 31.82 16.4337 31.82C16.087 31.82 15.837 31.9167 15.6837 32.11ZM23.5897 35C23.2497 35.4 22.773 35.6 22.1597 35.6C21.6197 35.6 21.1664 35.4367 20.7997 35.11L20.7297 35.5H19.5497V29.1H20.9197V31.2C21.2397 31 21.6364 30.9 22.1097 30.9C22.783 30.9 23.283 31.09 23.6097 31.47C23.9364 31.85 24.0997 32.43 24.0997 33.21C24.0997 34.0033 23.9297 34.6 23.5897 35ZM20.9197 34.15C21.153 34.3833 21.4364 34.5 21.7697 34.5C22.0964 34.5 22.3364 34.3967 22.4897 34.19C22.643 33.9833 22.7197 33.6633 22.7197 33.23C22.7197 32.79 22.6397 32.4767 22.4797 32.29C22.3264 32.0967 22.0864 32 21.7597 32C21.433 32 21.153 32.1 20.9197 32.3V34.15ZM29.6252 34.77C29.1852 35.2567 28.5152 35.5 27.6152 35.5H25.1552V29.38H27.6152C28.5085 29.38 29.1752 29.6267 29.6152 30.12C30.0618 30.6067 30.2852 31.3933 30.2852 32.48C30.2852 33.52 30.0652 34.2833 29.6252 34.77ZM28.3352 30.81C28.1218 30.6767 27.8185 30.61 27.4252 30.61H26.5252V34.35H27.4252C27.7718 34.35 28.0485 34.3 28.2552 34.2C28.4685 34.0933 28.6285 33.9067 28.7352 33.64C28.8485 33.3667 28.9052 32.98 28.9052 32.48C28.9052 32.0267 28.8618 31.6667 28.7752 31.4C28.6952 31.1333 28.5485 30.9367 28.3352 30.81ZM35.437 34.35V35.5H31.327V29.38H32.697V34.35H35.437Z" fill="white"/>
</svg>
